# xmcd
#
# Track frame offsets: 
#        150
#        16125
#        32462
#        46237
#        60360
#        71200
#        82487
#        94125
#        105447
#        116700
#        131862
#        140675
#        153762
#
# Disc length: 2205 seconds
#
# Revision: 0
# Processed by: cddbd v1.4PL0 Copyright (c) Steve Scherf et al.
# Submitted via: ExactAudioCopy v0.90b3
#
DISCID=ae089b0d
DTITLE=George Jones - Hallelujah Weekend
DYEAR=1900
DGENRE=Country
TTITLE0=Mama's Family Bible
TTITLE1=A Picture From Life's Other Side
TTITLE2=Me And Jesus
TTITLE3=We Oughta Be Ashamed
TTITLE4=The Devil Is Gathering Firewood
TTITLE5=Would They Love Him Down In Shreveport
TTITLE6=Swoop Down, Sweet Jesus
TTITLE7=(It's The Bible Against The Bottle) The Battle For Daddy's Sou
TTITLE7=l
TTITLE8=Hallelujah Weekend
TTITLE9=Jesus Saves Today
TTITLE10=We Love To Sing About Jesus (With Tammy Wynette)
TTITLE11=Old Fashioned Singing (With Tammy Wynette)
TTITLE12=Let's All Go Down To The River (With Tammy Wynette)
EXTD=
EXTT0=
EXTT1=
EXTT2=
EXTT3=
EXTT4=
EXTT5=
EXTT6=
EXTT7=
EXTT8=
EXTT9=
EXTT10=
EXTT11=
EXTT12=
PLAYORDER=
